<svg xmlns="http://www.w3.org/2000/svg" xmlns:xlink="http://www.w3.org/1999/xlink" version="1.1" id="Capa_1" x="0px" y="0px" viewBox="0 0 512 512" style="enable-background:new 0 0 512 512;" xml:space="preserve" width="300" height="300" xmlns:svgjs="http://svgjs.dev/svgjs"><g width="100%" height="100%" transform="matrix(1,0,0,1,0,0)"><g id="Gerbera">
	<path style="" d="M236,256c0-33.57,20.687-62.292,50-74.163c-9.267-3.752-19.387-5.837-30-5.837&#10;&#9;&#9;c-44.183,0-80,35.817-80,80c0,44.183,35.817,80,80,80c10.613,0,20.733-2.085,30-5.837C256.687,318.292,236,289.57,236,256z" fill="#ecf2f7" fill-opacity="1" data-original-color="#cee1f2ff" stroke="none" stroke-opacity="1"/>
	<path style="stroke-linecap: round; stroke-linejoin: round; stroke-miterlimit: 10;" d="&#10;&#9;&#9;M216,186.703V60c0-22.091,17.909-40,40-40c19.092,0,35.06,13.376,39.044,31.268" fill="none" fill-opacity="1" stroke="#325280" stroke-opacity="1" data-original-stroke-color="#0023c4ff" stroke-width="40" data-original-stroke-width="40"/>
	<path style="stroke-linecap: round; stroke-linejoin: round; stroke-miterlimit: 10;" d="&#10;&#9;&#9;M216.956,460.732C220.94,478.624,236.908,492,256,492c22.091,0,40-17.909,40-40V325.297" fill="none" fill-opacity="1" stroke="#325280" stroke-opacity="1" data-original-stroke-color="#0023c4ff" stroke-width="40" data-original-stroke-width="40"/>
	<path style="stroke-linecap: round; stroke-linejoin: round; stroke-miterlimit: 10;" d="&#10;&#9;&#9;M178.715,235.284l-92.421-92.421c-15.621-15.621-15.621-40.948,0-56.568C99.791,72.798,120.533,70.962,136,80.788" fill="none" fill-opacity="1" stroke="#325280" stroke-opacity="1" data-original-stroke-color="#0023c4ff" stroke-width="40" data-original-stroke-width="40"/>
	<path style="stroke-linecap: round; stroke-linejoin: round; stroke-miterlimit: 10;" d="&#10;&#9;&#9;M376,431.212c15.467,9.826,36.209,7.99,49.706-5.507c15.621-15.621,15.621-40.948,0-56.568l-92.421-92.421" fill="none" fill-opacity="1" stroke="#325280" stroke-opacity="1" data-original-stroke-color="#0023c4ff" stroke-width="40" data-original-stroke-width="40"/>
	<path style="stroke-linecap: round; stroke-linejoin: round; stroke-miterlimit: 10;" d="&#10;&#9;&#9;M186.703,296H60c-22.091,0-40-17.909-40-40c0-19.092,13.376-35.06,31.268-39.044" fill="none" fill-opacity="1" stroke="#325280" stroke-opacity="1" data-original-stroke-color="#0023c4ff" stroke-width="40" data-original-stroke-width="40"/>
	<path style="stroke-linecap: round; stroke-linejoin: round; stroke-miterlimit: 10;" d="&#10;&#9;&#9;M460.732,295.044C478.624,291.06,492,275.092,492,256c0-22.091-17.909-40-40-40H325.297" fill="none" fill-opacity="1" stroke="#325280" stroke-opacity="1" data-original-stroke-color="#0023c4ff" stroke-width="40" data-original-stroke-width="40"/>
	<path style="stroke-linecap: round; stroke-linejoin: round; stroke-miterlimit: 10;" d="&#10;&#9;&#9;M235.284,333.285l-92.421,92.421c-15.621,15.621-40.948,15.621-56.568,0C72.798,412.209,70.962,391.467,80.788,376" fill="none" fill-opacity="1" stroke="#325280" stroke-opacity="1" data-original-stroke-color="#0023c4ff" stroke-width="40" data-original-stroke-width="40"/>
	<path style="stroke-linecap: round; stroke-linejoin: round; stroke-miterlimit: 10;" d="&#10;&#9;&#9;M431.212,136c9.826-15.467,7.99-36.209-5.507-49.706c-15.621-15.621-40.948-15.621-56.568,0l-92.421,92.421" fill="none" fill-opacity="1" stroke="#325280" stroke-opacity="1" data-original-stroke-color="#0023c4ff" stroke-width="40" data-original-stroke-width="40"/>
	
		<circle style="stroke-linecap: round; stroke-linejoin: round; stroke-miterlimit: 10;" cx="256" cy="256" r="80" fill="none" fill-opacity="1" stroke="#325280" stroke-opacity="1" data-original-stroke-color="#0023c4ff" stroke-width="40" data-original-stroke-width="40"/>
	
		<line style="stroke-linecap: round; stroke-linejoin: round; stroke-miterlimit: 10;" x1="256" y1="256" x2="256" y2="256" fill="none" fill-opacity="1" stroke="#ff9df9" stroke-opacity="1" data-original-stroke-color="#ff5cf4ff" stroke-width="40" data-original-stroke-width="40"/>
</g></g></svg>